<svg xmlns="http://www.w3.org/2000/svg" xmlns:xlink="http://www.w3.org/1999/xlink" width="16" height="16" preserveAspectRatio="xMidYMid meet" viewBox="0 0 16 16" style="-ms-transform: rotate(360deg); -webkit-transform: rotate(360deg); transform: rotate(360deg);"><path d="M8 0a8 8 0 1 0 0 16A8 8 0 0 0 8 0zm0 14.5a6.5 6.5 0 1 1 0-13 6.5 6.5 0 0 1 0 13z" fill="#626262"/><path d="M10.5 4L8 6.5 5.5 4 4 5.5 6.5 8 4 10.5 5.5 12 8 9.5l2.5 2.5 1.5-1.5L9.5 8 12 5.5z" fill="#626262"/><rect x="0" y="0" width="16" height="16" fill="rgba(0, 0, 0, 0)" /></svg>