<svg xmlns="http://www.w3.org/2000/svg" xmlns:xlink="http://www.w3.org/1999/xlink" width="16" height="16" preserveAspectRatio="xMidYMid meet" viewBox="0 0 16 16" style="-ms-transform: rotate(360deg); -webkit-transform: rotate(360deg); transform: rotate(360deg);"><path d="M13.922 5.626A3.72 3.72 0 0 0 10.205 2a3.712 3.712 0 0 0-2.92 1.418 2.09 2.09 0 0 0-3.719 1.573 3.028 3.028 0 0 0-3.567 2.98A3.028 3.028 0 0 0 3.026 11H4.46l3.539 3.664L11.538 11h1.742a2.725 2.725 0 0 0 .641-5.374zM8 13l-3-3h2V7h2v3h2l-3 3z" fill="#626262"/><rect x="0" y="0" width="16" height="16" fill="rgba(0, 0, 0, 0)" /></svg>